<svg xmlns="http://www.w3.org/2000/svg" xmlns:xlink="http://www.w3.org/1999/xlink" width="840" height="711.3"><rect width="840" height="711.3" rx="5" ry="5" class="a"/><svg y="0%" x="0%"><circle cx="20" cy="20" r="6" fill="#ff5f58"/><circle cx="40" cy="20" r="6" fill="#ffbd2e"/><circle cx="60" cy="20" r="6" fill="#18c132"/></svg><svg height="651.3" viewBox="0 0 80 65.13" width="800" x="15" xmlns="http://www.w3.org/2000/svg" xmlns:xlink="http://www.w3.org/1999/xlink" y="50"><style>@keyframes i{0%{transform:translateX(0)}8.9%{transform:translateX(-80px)}14.3%{transform:translateX(-160px)}23.2%{transform:translateX(-240px)}28.6%{transform:translateX(-320px)}37.5%{transform:translateX(-400px)}42.9%{transform:translateX(-480px)}51.8%{transform:translateX(-560px)}57.1%{transform:translateX(-640px)}66.1%{transform:translateX(-720px)}71.4%{transform:translateX(-800px)}80.4%{transform:translateX(-880px)}85.7%{transform:translateX(-960px)}94.6%{transform:translateX(-1040px)}to{transform:translateX(-1120px)}}.a{fill:#282d35}.f{fill:#b9c0cb;white-space:pre}</style><g font-family="Monaco,Consolas,Menlo,'Bitstream Vera Sans Mono','Powerline Symbols',monospace" font-size="1.67"><defs><symbol id="1"><text y="1.67" class="f">$</text><text x="2.004" y="1.67" class="f">cargo</text><text x="8.016" y="1.67" class="f">kimi</text><text x="13.026" y="1.67" class="f">init</text><text x="18.036" y="1.67" class="f">--template</text><text x="29.058" y="1.67" class="f">minimal</text><text x="37.074" y="1.67" class="f">--yes</text></symbol><symbol id="2"><text y="1.67" class="f">✓</text><text x="2.004" y="1.67" class="f">Created</text><text x="10.02" y="1.67" class="f">AGENTS.md</text><text x="20.04" y="1.67" class="f">(template:</text><text x="31.062" y="1.67" class="f">minimal)</text></symbol><symbol id="3"><text x="39.078" y="1.67" class="f">✓</text><text x="41.082" y="1.67" class="f">Created</text><text x="49.098" y="1.67" class="f">.cargo/config.toml</text><text x="68.136" y="1.67" class="f">(strictness:</text></symbol><symbol id="4"><text x="1.002" y="1.67" class="f">standard)</text></symbol><symbol id="5"><text x="10.02" y="1.67" class="f">Next:</text><text x="16.032" y="1.67" class="f">git</text><text x="20.04" y="1.67" class="f">add</text><text x="24.048" y="1.67" class="f">AGENTS.md</text><text x="34.068" y="1.67" class="f">.cargo/config.toml</text><text x="53.106" y="1.67" class="f">&amp;&amp;</text><text x="56.112" y="1.67" class="f">git</text><text x="60.12" y="1.67" class="f">commit</text><text x="67.134" y="1.67" class="f">-m</text><text x="70.14" y="1.67" class="f">&apos;Add</text><text x="75.15" y="1.67" class="f">kimi-</text></symbol><symbol id="6"><text y="1.67" class="f">dotfiles</text><text x="9.018" y="1.67" class="f">guidelines&apos;</text></symbol><symbol id="7"><text y="1.67" class="f">$</text><text x="2.004" y="1.67" class="f">cargo</text><text x="8.016" y="1.67" class="f">kimi</text><text x="13.026" y="1.67" class="f">check</text><text x="19.038" y="1.67" class="f">--strictness</text><text x="32.064" y="1.67" class="f">standard</text></symbol><symbol id="8"><text y="1.67" class="f">════════════════</text></symbol><symbol id="9"><text x="16.032" y="1.67" class="f">╭─────────┬───────────┬────────╮</text></symbol><symbol id="10"><text x="48.096" y="1.67" class="f">│</text><text x="50.1" y="1.67" class="f">File</text><text x="58.116" y="1.67" class="f">┆</text><text x="60.12" y="1.67" class="f">Score</text><text x="70.14" y="1.67" class="f">┆</text><text x="72.144" y="1.67" class="f">Issues</text><text x="79.158" y="1.67" class="f">│</text></symbol><symbol id="11"><text x="79.158" y="1.67" class="f">╞</text></symbol><symbol id="12"><text y="1.67" class="f">═════════╪═══════════╪════════╡</text></symbol><symbol id="13"><text x="31.062" y="1.67" class="f">│</text><text x="33.066" y="1.67" class="f">lib.rs</text><text x="41.082" y="1.67" class="f">┆</text><text x="43.086" y="1.67" class="f">🔴</text><text x="46.092" y="1.67" class="f">20/100</text><text x="53.106" y="1.67" class="f">┆</text><text x="55.11" y="1.67" class="f">⚠️</text><text x="59.118" y="1.67" class="f">3</text><text x="62.124" y="1.67" class="f">│</text></symbol><symbol id="14"><text x="63.126" y="1.67" class="f">├╌╌╌╌╌╌╌╌╌┼╌╌╌╌╌╌</text></symbol><symbol id="15"><text y="1.67" class="f">╌╌╌╌╌┼╌╌╌╌╌╌╌╌┤</text></symbol><symbol id="16"><text x="15.03" y="1.67" class="f">│</text><text x="17.034" y="1.67" class="f">main.rs</text><text x="25.05" y="1.67" class="f">┆</text><text x="27.054" y="1.67" class="f">🟡</text><text x="30.06" y="1.67" class="f">60/100</text><text x="37.074" y="1.67" class="f">┆</text><text x="39.078" y="1.67" class="f">✅</text><text x="41.082" y="1.67" class="f">0</text><text x="45.09" y="1.67" class="f">│</text></symbol><symbol id="17"><text x="46.092" y="1.67" class="f">╰─────────┴───────────┴────────╯</text></symbol><symbol id="18"><text x="78.156" y="1.67" class="f">📄</text></symbol><symbol id="19"><text x="1.002" y="1.67" class="f">src/lib.rs</text><text x="12.024" y="1.67" class="f">(🔴</text><text x="16.032" y="1.67" class="f">20/100)</text></symbol><symbol id="20"><text x="25.05" y="1.67" class="f">🟠</text><text x="28.056" y="1.67" class="f">MAJOR</text><text x="34.068" y="1.67" class="f">L1</text><text x="37.074" y="1.67" class="f">pub</text><text x="41.082" y="1.67" class="f">fn</text><text x="44.088" y="1.67" class="f">&apos;parse_number&apos;</text><text x="59.118" y="1.67" class="f">missing</text><text x="67.134" y="1.67" class="f">Hoare</text><text x="73.146" y="1.67" class="f">triple</text></symbol><symbol id="21"><text y="1.67" class="f">doc</text><text x="4.008" y="1.67" class="f">comment</text><text x="12.024" y="1.67" class="f">(///</text><text x="17.034" y="1.67" class="f">{</text><text x="19.038" y="1.67" class="f">...</text><text x="23.046" y="1.67" class="f">})</text></symbol><symbol id="22"><text x="28.056" y="1.67" class="f">🟠</text><text x="31.062" y="1.67" class="f">MAJOR</text><text x="37.074" y="1.67" class="f">L7</text><text x="40.08" y="1.67" class="f">pub</text><text x="44.088" y="1.67" class="f">fn</text><text x="47.094" y="1.67" class="f">&apos;divide&apos;</text><text x="56.112" y="1.67" class="f">missing</text><text x="64.128" y="1.67" class="f">Hoare</text><text x="70.14" y="1.67" class="f">triple</text><text x="77.154" y="1.67" class="f">doc</text></symbol><symbol id="23"><text x="1.002" y="1.67" class="f">comment</text><text x="9.018" y="1.67" class="f">(///</text><text x="14.028" y="1.67" class="f">{</text><text x="16.032" y="1.67" class="f">...</text><text x="20.04" y="1.67" class="f">})</text></symbol><symbol id="24"><text x="25.05" y="1.67" class="f">🔴</text><text x="28.056" y="1.67" class="f">CRITICAL</text><text x="37.074" y="1.67" class="f">L3</text><text x="40.08" y="1.67" class="f">unwrap()/expect()/panic!()</text><text x="67.134" y="1.67" class="f">found</text><text x="73.146" y="1.67" class="f">outside</text></symbol><symbol id="25"><text x="1.002" y="1.67" class="f">tests</text><text x="7.014" y="1.67" class="f">or</text><text x="10.02" y="1.67" class="f">SAFETY</text><text x="17.034" y="1.67" class="f">block:</text><text x="24.048" y="1.67" class="f">let</text><text x="28.056" y="1.67" class="f">val</text><text x="32.064" y="1.67" class="f">=</text><text x="34.068" y="1.67" class="f">n.unwrap();</text></symbol><symbol id="26"><text x="46.092" y="1.67" class="f">──────────────────────────────────</text></symbol><symbol id="27"><text y="1.67" class="f">─────────</text></symbol><symbol id="28"><text x="11.022" y="1.67" class="f">🔴</text><text x="14.028" y="1.67" class="f">1</text><text x="17.034" y="1.67" class="f">🟠</text><text x="20.04" y="1.67" class="f">2</text><text x="23.046" y="1.67" class="f">🟡</text><text x="26.052" y="1.67" class="f">0</text><text x="29.058" y="1.67" class="f">🔵</text><text x="32.064" y="1.67" class="f">0</text></symbol><symbol id="29"><text x="35.07" y="1.67" class="f">Average</text><text x="43.086" y="1.67" class="f">score:</text><text x="50.1" y="1.67" class="f">🟠</text><text x="53.106" y="1.67" class="f">40/100</text></symbol><symbol id="30"><text x="59.118" y="1.67" class="f">═════════════════════</text></symbol><symbol id="31"><text y="1.67" class="f">══════════════════════</text></symbol><symbol id="32"><text x="22.044" y="1.67" class="f">Error:</text><text x="29.058" y="1.67" class="f">❌</text><text x="31.062" y="1.67" class="f">Contract</text><text x="40.08" y="1.67" class="f">check</text><text x="46.092" y="1.67" class="f">failed:</text><text x="54.108" y="1.67" class="f">critical</text><text x="63.126" y="1.67" class="f">issues</text><text x="70.14" y="1.67" class="f">found</text></symbol><symbol id="33"><text y="1.67" class="f">$</text><text x="2.004" y="1.67" class="f">cargo</text><text x="8.016" y="1.67" class="f">kimi</text><text x="13.026" y="1.67" class="f">fix</text><text x="17.034" y="1.67" class="f">--dry-run</text></symbol><symbol id="34"><text y="1.67" class="f">---</text><text x="4.008" y="1.67" class="f">src/lib.rs</text></symbol><symbol id="35"><text x="14.028" y="1.67" class="f">+++</text><text x="18.036" y="1.67" class="f">src/lib.rs</text></symbol><symbol id="36"><text x="28.056" y="1.67" class="f">+///</text><text x="33.066" y="1.67" class="f">{</text><text x="35.07" y="1.67" class="f">TODO:</text><text x="41.082" y="1.67" class="f">precondition</text><text x="54.108" y="1.67" class="f">}</text></symbol><symbol id="37"><text x="55.11" y="1.67" class="f">+///</text><text x="60.12" y="1.67" class="f">pub</text><text x="64.128" y="1.67" class="f">fn</text><text x="67.134" y="1.67" class="f">parse_number(</text></symbol><symbol id="38"><text y="1.67" class="f">s:</text><text x="3.006" y="1.67" class="f">&amp;str)</text><text x="9.018" y="1.67" class="f">-&gt;</text><text x="12.024" y="1.67" class="f">Result&lt;i32,</text><text x="24.048" y="1.67" class="f">String&gt;</text></symbol><symbol id="39"><text x="31.062" y="1.67" class="f">+///</text><text x="36.072" y="1.67" class="f">{</text><text x="38.076" y="1.67" class="f">TODO:</text><text x="44.088" y="1.67" class="f">postcondition</text><text x="58.116" y="1.67" class="f">}</text></symbol><symbol id="40"><text x="60.12" y="1.67" class="f">pub</text><text x="64.128" y="1.67" class="f">fn</text><text x="67.134" y="1.67" class="f">parse_number(</text></symbol><symbol id="41"><text y="1.67" class="f">s:</text><text x="3.006" y="1.67" class="f">&amp;str)</text><text x="9.018" y="1.67" class="f">-&gt;</text><text x="12.024" y="1.67" class="f">Result&lt;i32,</text><text x="24.048" y="1.67" class="f">String&gt;</text><text x="32.064" y="1.67" class="f">{</text></symbol><symbol id="42"><text x="38.076" y="1.67" class="f">let</text><text x="42.084" y="1.67" class="f">n</text><text x="44.088" y="1.67" class="f">=</text><text x="46.092" y="1.67" class="f">s.parse::&lt;i32&gt;().ok();</text></symbol><symbol id="43"><text x="68.136" y="1.67" class="f">-</text><text x="73.146" y="1.67" class="f">let</text><text x="77.154" y="1.67" class="f">val</text></symbol><symbol id="44"><text x="1.002" y="1.67" class="f">=</text><text x="3.006" y="1.67" class="f">n.unwrap();</text></symbol><symbol id="45"><text x="14.028" y="1.67" class="f">+</text><text x="19.038" y="1.67" class="f">let</text><text x="23.046" y="1.67" class="f">val</text><text x="27.054" y="1.67" class="f">=</text><text x="29.058" y="1.67" class="f">n.ok_or(&quot;unwrap</text><text x="45.09" y="1.67" class="f">failed&quot;)?;</text></symbol><symbol id="46"><text x="60.12" y="1.67" class="f">Ok(val)</text></symbol><symbol id="47"><text x="68.136" y="1.67" class="f">}</text></symbol><symbol id="48"><text x="70.14" y="1.67" class="f">+///</text><text x="75.15" y="1.67" class="f">{</text><text x="77.154" y="1.67" class="f">TOD</text></symbol><symbol id="49"><text y="1.67" class="f">O:</text><text x="3.006" y="1.67" class="f">precondition</text><text x="16.032" y="1.67" class="f">}</text></symbol><symbol id="50"><text x="17.034" y="1.67" class="f">+///</text><text x="22.044" y="1.67" class="f">pub</text><text x="26.052" y="1.67" class="f">fn</text><text x="29.058" y="1.67" class="f">divide(a:</text><text x="39.078" y="1.67" class="f">i32,</text><text x="44.088" y="1.67" class="f">b:</text><text x="47.094" y="1.67" class="f">i32)</text><text x="52.104" y="1.67" class="f">-&gt;</text><text x="55.11" y="1.67" class="f">i32</text></symbol><symbol id="51"><text x="58.116" y="1.67" class="f">+///</text><text x="63.126" y="1.67" class="f">{</text><text x="65.13" y="1.67" class="f">TODO:</text><text x="71.142" y="1.67" class="f">postcondi</text></symbol><symbol id="52"><text y="1.67" class="f">tion</text><text x="5.01" y="1.67" class="f">}</text></symbol><symbol id="53"><text x="7.014" y="1.67" class="f">pub</text><text x="11.022" y="1.67" class="f">fn</text><text x="14.028" y="1.67" class="f">divide(a:</text><text x="24.048" y="1.67" class="f">i32,</text><text x="29.058" y="1.67" class="f">b:</text><text x="32.064" y="1.67" class="f">i32)</text><text x="37.074" y="1.67" class="f">-&gt;</text><text x="40.08" y="1.67" class="f">i32</text><text x="44.088" y="1.67" class="f">{</text></symbol><symbol id="54"><text x="50.1" y="1.67" class="f">a</text><text x="52.104" y="1.67" class="f">/</text><text x="54.108" y="1.67" class="f">b</text></symbol><symbol id="55"><text x="56.112" y="1.67" class="f">}</text></symbol><symbol id="56"><text x="57.114" y="1.67" class="f">Would</text><text x="63.126" y="1.67" class="f">fix</text><text x="67.134" y="1.67" class="f">3</text><text x="69.138" y="1.67" class="f">issues</text><text x="76.152" y="1.67" class="f">in</text><text x="79.158" y="1.67" class="f">1</text></symbol><symbol id="57"><text x="1.002" y="1.67" class="f">files</text></symbol><symbol id="58"><text y="1.67" class="f">$</text><text x="2.004" y="1.67" class="f">cargo</text><text x="8.016" y="1.67" class="f">kimi</text><text x="13.026" y="1.67" class="f">fix</text></symbol><symbol id="59"><text y="1.67" class="f">Fixed</text><text x="6.012" y="1.67" class="f">3</text><text x="8.016" y="1.67" class="f">issues</text><text x="15.03" y="1.67" class="f">in</text><text x="18.036" y="1.67" class="f">1</text><text x="20.04" y="1.67" class="f">files</text></symbol><symbol id="60"><text x="64.128" y="1.67" class="f">running</text><text x="72.144" y="1.67" class="f">0</text><text x="74.148" y="1.67" class="f">tests</text></symbol><symbol id="61"><text x="79.158" y="1.67" class="f">t</text></symbol><symbol id="62"><text y="1.67" class="f">est</text><text x="4.008" y="1.67" class="f">result:</text><text x="12.024" y="1.67" class="f">ok.</text><text x="16.032" y="1.67" class="f">0</text><text x="18.036" y="1.67" class="f">passed;</text><text x="26.052" y="1.67" class="f">0</text><text x="28.056" y="1.67" class="f">failed;</text><text x="36.072" y="1.67" class="f">0</text><text x="38.076" y="1.67" class="f">ignored;</text><text x="47.094" y="1.67" class="f">0</text><text x="49.098" y="1.67" class="f">measured;</text><text x="59.118" y="1.67" class="f">0</text><text x="61.122" y="1.67" class="f">filtered</text><text x="70.14" y="1.67" class="f">out;</text><text x="75.15" y="1.67" class="f">finis</text></symbol><symbol id="63"><text y="1.67" class="f">hed</text><text x="4.008" y="1.67" class="f">in</text><text x="7.014" y="1.67" class="f">0.00s</text></symbol><symbol id="64"><text x="12.024" y="1.67" class="f">running</text><text x="20.04" y="1.67" class="f">0</text><text x="22.044" y="1.67" class="f">tests</text></symbol><symbol id="65"><text x="27.054" y="1.67" class="f">test</text><text x="32.064" y="1.67" class="f">result:</text><text x="40.08" y="1.67" class="f">ok.</text><text x="44.088" y="1.67" class="f">0</text><text x="46.092" y="1.67" class="f">passed;</text><text x="54.108" y="1.67" class="f">0</text><text x="56.112" y="1.67" class="f">failed;</text><text x="64.128" y="1.67" class="f">0</text><text x="66.132" y="1.67" class="f">ignored;</text><text x="75.15" y="1.67" class="f">0</text><text x="77.154" y="1.67" class="f">mea</text></symbol><symbol id="66"><text y="1.67" class="f">sured;</text><text x="7.014" y="1.67" class="f">0</text><text x="9.018" y="1.67" class="f">filtered</text><text x="18.036" y="1.67" class="f">out;</text><text x="23.046" y="1.67" class="f">finished</text><text x="32.064" y="1.67" class="f">in</text><text x="35.07" y="1.67" class="f">0.00s</text></symbol><symbol id="67"><text x="40.08" y="1.67" class="f">✅</text><text x="42.084" y="1.67" class="f">All</text><text x="46.092" y="1.67" class="f">checks</text><text x="53.106" y="1.67" class="f">passed</text></symbol><symbol id="68"><text x="63.126" y="1.67" class="f">Checking</text><text x="72.144" y="1.67" class="f">demo</text><text x="77.154" y="1.67" class="f">v0.</text></symbol><symbol id="69"><text y="1.67" class="f">1.0</text><text x="4.008" y="1.67" class="f">(/private/tmp/kimi-demo)</text></symbol><symbol id="70"><text x="32.064" y="1.67" class="f">Finished</text><text x="41.082" y="1.67" class="f">`dev`</text><text x="47.094" y="1.67" class="f">profile</text><text x="55.11" y="1.67" class="f">[unoptimized</text><text x="68.136" y="1.67" class="f">+</text><text x="70.14" y="1.67" class="f">debuginfo]</text></symbol><symbol id="71"><text x="1.002" y="1.67" class="f">target(s)</text><text x="11.022" y="1.67" class="f">in</text><text x="14.028" y="1.67" class="f">0.08s</text></symbol><symbol id="72"><text x="22.044" y="1.67" class="f">Compiling</text><text x="32.064" y="1.67" class="f">demo</text><text x="37.074" y="1.67" class="f">v0.1.0</text><text x="44.088" y="1.67" class="f">(/private/tmp/kimi-demo)</text></symbol><symbol id="73"><text x="72.144" y="1.67" class="f">Finished</text></symbol><symbol id="74"><text x="1.002" y="1.67" class="f">`test`</text><text x="8.016" y="1.67" class="f">profile</text><text x="16.032" y="1.67" class="f">[unoptimized</text><text x="29.058" y="1.67" class="f">+</text><text x="31.062" y="1.67" class="f">debuginfo]</text><text x="42.084" y="1.67" class="f">target(s)</text><text x="52.104" y="1.67" class="f">in</text><text x="55.11" y="1.67" class="f">0.16s</text></symbol><symbol id="75"><text x="65.13" y="1.67" class="f">Running</text><text x="73.146" y="1.67" class="f">unittes</text></symbol><symbol id="76"><text y="1.67" class="f">ts</text><text x="3.006" y="1.67" class="f">src/lib.rs</text><text x="14.028" y="1.67" class="f">(target/debug/deps/demo-c2b7b56f6115f34b)</text></symbol><symbol id="77"><text x="60.12" y="1.67" class="f">Running</text><text x="68.136" y="1.67" class="f">unittests</text><text x="78.156" y="1.67" class="f">sr</text></symbol><symbol id="78"><text y="1.67" class="f">c/main.rs</text><text x="10.02" y="1.67" class="f">(target/debug/deps/demo-fa352d11e58eb606)</text></symbol><symbol id="79"><text x="54.108" y="1.67" class="f">Doc-tests</text><text x="64.128" y="1.67" class="f">demo</text></symbol><symbol id="80"><text y="1.67" class="f">$</text><text x="2.004" y="1.67" class="f">cargo</text><text x="8.016" y="1.67" class="f">kimi</text><text x="13.026" y="1.67" class="f">badge</text></symbol><symbol id="81"><text y="1.67" class="f">✅</text><text x="2.004" y="1.67" class="f">Badge</text><text x="8.016" y="1.67" class="f">written</text><text x="16.032" y="1.67" class="f">to</text><text x="19.038" y="1.67" class="f">kimi-score.svg</text><text x="34.068" y="1.67" class="f">(score:</text><text x="42.084" y="1.67" class="f">65)</text></symbol><symbol id="82"><text y="1.67" class="f">$</text><text x="2.004" y="1.67" class="f">echo</text><text x="7.014" y="1.67" class="f">&apos;Done!&apos;</text></symbol><symbol id="a"><path fill="transparent" d="M0 0h80v31H0z"/></symbol><symbol id="b"><path fill="#6f7683" d="M0 0h1.102v2.171H0z"/></symbol></defs><path class="a" d="M0 0h80v65.13H0z"/><g style="animation-duration:5.6s;animation-iteration-count:infinite;animation-name:i;animation-timing-function:steps(1,end)"><svg width="1200"><svg><use xlink:href="#a"/><use xlink:href="#b" x="-.004"/></svg><svg x="80"><use xlink:href="#a"/><use xlink:href="#b" x="-.004" y="4.317"/><use xlink:href="#1" y="2.171"/></svg><svg x="160"><use xlink:href="#a"/><use xlink:href="#b" x="19.996" y="17.343"/><use xlink:href="#1" y="2.171"/><use xlink:href="#2" y="4.342"/><use xlink:href="#3" y="6.513"/><use xlink:href="#4" y="8.684"/><use xlink:href="#5" y="13.026"/><use xlink:href="#6" y="15.197"/></svg><svg x="240"><use xlink:href="#a"/><use xlink:href="#b" x="-.004" y="21.685"/><use xlink:href="#1" y="2.171"/><use xlink:href="#2" y="4.342"/><use xlink:href="#3" y="6.513"/><use xlink:href="#4" y="8.684"/><use xlink:href="#5" y="13.026"/><use xlink:href="#6" y="15.197"/><use xlink:href="#7" y="19.539"/></svg><svg x="320"><use xlink:href="#a"/><use xlink:href="#b" x="74.996" y="65.105"/><text x="20.04" y="1.67" class="f">🛡️</text><text x="25.05" y="1.67" class="f">Kimi</text><text x="30.06" y="1.67" class="f">Contract</text><text x="39.078" y="1.67" class="f">Check</text><text x="46.092" y="1.67" class="f">Results</text><text x="53.106" y="3.841" class="f">═══════════════════════════</text><use xlink:href="#8" y="4.342"/><use xlink:href="#9" y="8.684"/><use xlink:href="#10" y="10.855"/><use xlink:href="#11" y="13.026"/><use xlink:href="#12" y="15.197"/><use xlink:href="#13" y="17.368"/><use xlink:href="#14" y="19.539"/><use xlink:href="#15" y="21.71"/><use xlink:href="#16" y="23.881"/><use xlink:href="#17" y="26.052"/><use xlink:href="#18" y="30.394"/><use xlink:href="#19" y="32.565"/><use xlink:href="#20" y="34.736"/><use xlink:href="#21" y="36.907"/><use xlink:href="#22" y="39.078"/><use xlink:href="#23" y="41.249"/><use xlink:href="#24" y="43.42"/><use xlink:href="#25" y="45.591"/><use xlink:href="#26" y="49.933"/><use xlink:href="#27" y="52.104"/><use xlink:href="#28" y="54.275"/><use xlink:href="#29" y="56.446"/><use xlink:href="#30" y="58.617"/><use xlink:href="#31" y="60.788"/><use xlink:href="#32" y="62.959"/></svg><svg x="400"><use xlink:href="#a"/><use xlink:href="#b" x="-.004" y="65.105"/><use xlink:href="#8"/><use xlink:href="#9" y="4.342"/><use xlink:href="#10" y="6.513"/><use xlink:href="#11" y="8.684"/><use xlink:href="#12" y="10.855"/><use xlink:href="#13" y="13.026"/><use xlink:href="#14" y="15.197"/><use xlink:href="#15" y="17.368"/><use xlink:href="#16" y="19.539"/><use xlink:href="#17" y="21.71"/><use xlink:href="#18" y="26.052"/><use xlink:href="#19" y="28.223"/><use xlink:href="#20" y="30.394"/><use xlink:href="#21" y="32.565"/><use xlink:href="#22" y="34.736"/><use xlink:href="#23" y="36.907"/><use xlink:href="#24" y="39.078"/><use xlink:href="#25" y="41.249"/><use xlink:href="#26" y="45.591"/><use xlink:href="#27" y="47.762"/><use xlink:href="#28" y="49.933"/><use xlink:href="#29" y="52.104"/><use xlink:href="#30" y="54.275"/><use xlink:href="#31" y="56.446"/><use xlink:href="#32" y="58.617"/><use xlink:href="#33" y="62.959"/></svg><svg x="480"><use xlink:href="#a"/><use xlink:href="#b" x="5.996" y="65.105"/><use xlink:href="#31"/><use xlink:href="#32" y="2.171"/><use xlink:href="#33" y="6.513"/><use xlink:href="#34" y="8.684"/><use xlink:href="#35" y="10.855"/><use xlink:href="#36" y="13.026"/><use xlink:href="#37" y="15.197"/><use xlink:href="#38" y="17.368"/><use xlink:href="#39" y="19.539"/><use xlink:href="#40" y="21.71"/><use xlink:href="#41" y="23.881"/><use xlink:href="#42" y="26.052"/><use xlink:href="#43" y="28.223"/><use xlink:href="#44" y="30.394"/><use xlink:href="#45" y="32.565"/><use xlink:href="#46" y="34.736"/><use xlink:href="#47" y="36.907"/><use xlink:href="#48" y="41.249"/><use xlink:href="#49" y="43.42"/><use xlink:href="#50" y="45.591"/><use xlink:href="#51" y="47.762"/><use xlink:href="#52" y="49.933"/><use xlink:href="#53" y="52.104"/><use xlink:href="#54" y="54.275"/><use xlink:href="#55" y="56.446"/><use xlink:href="#56" y="60.788"/><use xlink:href="#57" y="62.959"/></svg><svg x="560"><use xlink:href="#a"/><use xlink:href="#b" x="-.004" y="65.105"/><use xlink:href="#33" y="2.171"/><use xlink:href="#34" y="4.342"/><use xlink:href="#35" y="6.513"/><use xlink:href="#36" y="8.684"/><use xlink:href="#37" y="10.855"/><use xlink:href="#38" y="13.026"/><use xlink:href="#39" y="15.197"/><use xlink:href="#40" y="17.368"/><use xlink:href="#41" y="19.539"/><use xlink:href="#42" y="21.71"/><use xlink:href="#43" y="23.881"/><use xlink:href="#44" y="26.052"/><use xlink:href="#45" y="28.223"/><use xlink:href="#46" y="30.394"/><use xlink:href="#47" y="32.565"/><use xlink:href="#48" y="36.907"/><use xlink:href="#49" y="39.078"/><use xlink:href="#50" y="41.249"/><use xlink:href="#51" y="43.42"/><use xlink:href="#52" y="45.591"/><use xlink:href="#53" y="47.762"/><use xlink:href="#54" y="49.933"/><use xlink:href="#55" y="52.104"/><use xlink:href="#56" y="56.446"/><use xlink:href="#57" y="58.617"/><use xlink:href="#58" y="62.959"/></svg><svg x="640"><use xlink:href="#a"/><use xlink:href="#b" x="24.996" y="65.105"/><use xlink:href="#33"/><use xlink:href="#34" y="2.171"/><use xlink:href="#35" y="4.342"/><use xlink:href="#36" y="6.513"/><use xlink:href="#37" y="8.684"/><use xlink:href="#38" y="10.855"/><use xlink:href="#39" y="13.026"/><use xlink:href="#40" y="15.197"/><use xlink:href="#41" y="17.368"/><use xlink:href="#42" y="19.539"/><use xlink:href="#43" y="21.71"/><use xlink:href="#44" y="23.881"/><use xlink:href="#45" y="26.052"/><use xlink:href="#46" y="28.223"/><use xlink:href="#47" y="30.394"/><use xlink:href="#48" y="34.736"/><use xlink:href="#49" y="36.907"/><use xlink:href="#50" y="39.078"/><use xlink:href="#51" y="41.249"/><use xlink:href="#52" y="43.42"/><use xlink:href="#53" y="45.591"/><use xlink:href="#54" y="47.762"/><use xlink:href="#55" y="49.933"/><use xlink:href="#56" y="54.275"/><use xlink:href="#57" y="56.446"/><use xlink:href="#58" y="60.788"/><use xlink:href="#59" y="62.959"/></svg><svg x="720"><use xlink:href="#a"/><use xlink:href="#b" x="-.004" y="65.105"/><use xlink:href="#35"/><use xlink:href="#36" y="2.171"/><use xlink:href="#37" y="4.342"/><use xlink:href="#38" y="6.513"/><use xlink:href="#39" y="8.684"/><use xlink:href="#40" y="10.855"/><use xlink:href="#41" y="13.026"/><use xlink:href="#42" y="15.197"/><use xlink:href="#43" y="17.368"/><use xlink:href="#44" y="19.539"/><use xlink:href="#45" y="21.71"/><use xlink:href="#46" y="23.881"/><use xlink:href="#47" y="26.052"/><use xlink:href="#48" y="30.394"/><use xlink:href="#49" y="32.565"/><use xlink:href="#50" y="34.736"/><use xlink:href="#51" y="36.907"/><use xlink:href="#52" y="39.078"/><use xlink:href="#53" y="41.249"/><use xlink:href="#54" y="43.42"/><use xlink:href="#55" y="45.591"/><use xlink:href="#56" y="49.933"/><use xlink:href="#57" y="52.104"/><use xlink:href="#58" y="56.446"/><use xlink:href="#59" y="58.617"/><use xlink:href="#7" y="62.959"/></svg><svg x="800"><use xlink:href="#a"/><use xlink:href="#b" x="67.996" y="65.105"/><text x="51.102" y="1.67" class="f">test</text><text x="56.112" y="1.67" class="f">result:</text><text x="64.128" y="1.67" class="f">ok.</text><text x="68.136" y="1.67" class="f">0</text><text x="70.14" y="1.67" class="f">passed;</text><text x="78.156" y="1.67" class="f">0</text><text y="3.841" class="f">failed;</text><text x="8.016" y="3.841" class="f">0</text><text x="10.02" y="3.841" class="f">ignored;</text><text x="19.038" y="3.841" class="f">0</text><text x="21.042" y="3.841" class="f">measured;</text><text x="31.062" y="3.841" class="f">0</text><text x="33.066" y="3.841" class="f">filtered</text><text x="42.084" y="3.841" class="f">out;</text><text x="47.094" y="3.841" class="f">finished</text><text x="56.112" y="3.841" class="f">in</text><text x="59.118" y="3.841" class="f">0.00s</text><use xlink:href="#60" y="8.684"/><use xlink:href="#61" y="13.026"/><use xlink:href="#62" y="15.197"/><use xlink:href="#63" y="17.368"/><use xlink:href="#64" y="23.881"/><use xlink:href="#65" y="28.223"/><use xlink:href="#66" y="30.394"/><use xlink:href="#67" y="36.907"/><use xlink:href="#68" y="39.078"/><use xlink:href="#69" y="41.249"/><use xlink:href="#70" y="43.42"/><use xlink:href="#71" y="45.591"/><use xlink:href="#72" y="47.762"/><use xlink:href="#73" y="49.933"/><use xlink:href="#74" y="52.104"/><use xlink:href="#75" y="54.275"/><use xlink:href="#76" y="56.446"/><use xlink:href="#77" y="58.617"/><use xlink:href="#78" y="60.788"/><use xlink:href="#79" y="62.959"/></svg><svg x="880"><use xlink:href="#a"/><use xlink:href="#b" x="-.004" y="65.105"/><use xlink:href="#60" y="4.342"/><use xlink:href="#61" y="8.684"/><use xlink:href="#62" y="10.855"/><use xlink:href="#63" y="13.026"/><use xlink:href="#64" y="19.539"/><use xlink:href="#65" y="23.881"/><use xlink:href="#66" y="26.052"/><use xlink:href="#67" y="32.565"/><use xlink:href="#68" y="34.736"/><use xlink:href="#69" y="36.907"/><use xlink:href="#70" y="39.078"/><use xlink:href="#71" y="41.249"/><use xlink:href="#72" y="43.42"/><use xlink:href="#73" y="45.591"/><use xlink:href="#74" y="47.762"/><use xlink:href="#75" y="49.933"/><use xlink:href="#76" y="52.104"/><use xlink:href="#77" y="54.275"/><use xlink:href="#78" y="56.446"/><use xlink:href="#79" y="58.617"/><use xlink:href="#80" y="62.959"/></svg><svg x="960"><use xlink:href="#a"/><use xlink:href="#b" x="44.996" y="65.105"/><use xlink:href="#60" y="2.171"/><use xlink:href="#61" y="6.513"/><use xlink:href="#62" y="8.684"/><use xlink:href="#63" y="10.855"/><use xlink:href="#64" y="17.368"/><use xlink:href="#65" y="21.71"/><use xlink:href="#66" y="23.881"/><use xlink:href="#67" y="30.394"/><use xlink:href="#68" y="32.565"/><use xlink:href="#69" y="34.736"/><use xlink:href="#70" y="36.907"/><use xlink:href="#71" y="39.078"/><use xlink:href="#72" y="41.249"/><use xlink:href="#73" y="43.42"/><use xlink:href="#74" y="45.591"/><use xlink:href="#75" y="47.762"/><use xlink:href="#76" y="49.933"/><use xlink:href="#77" y="52.104"/><use xlink:href="#78" y="54.275"/><use xlink:href="#79" y="56.446"/><use xlink:href="#80" y="60.788"/><use xlink:href="#81" y="62.959"/></svg><svg x="1040"><use xlink:href="#a"/><use xlink:href="#b" x="-.004" y="65.105"/><use xlink:href="#61" y="2.171"/><use xlink:href="#62" y="4.342"/><use xlink:href="#63" y="6.513"/><use xlink:href="#64" y="13.026"/><use xlink:href="#65" y="17.368"/><use xlink:href="#66" y="19.539"/><use xlink:href="#67" y="26.052"/><use xlink:href="#68" y="28.223"/><use xlink:href="#69" y="30.394"/><use xlink:href="#70" y="32.565"/><use xlink:href="#71" y="34.736"/><use xlink:href="#72" y="36.907"/><use xlink:href="#73" y="39.078"/><use xlink:href="#74" y="41.249"/><use xlink:href="#75" y="43.42"/><use xlink:href="#76" y="45.591"/><use xlink:href="#77" y="47.762"/><use xlink:href="#78" y="49.933"/><use xlink:href="#79" y="52.104"/><use xlink:href="#80" y="56.446"/><use xlink:href="#81" y="58.617"/><use xlink:href="#82" y="62.959"/></svg><svg x="1120"><use xlink:href="#a"/><use xlink:href="#b" x="-.004" y="65.105"/><use xlink:href="#61"/><use xlink:href="#62" y="2.171"/><use xlink:href="#63" y="4.342"/><use xlink:href="#64" y="10.855"/><use xlink:href="#65" y="15.197"/><use xlink:href="#66" y="17.368"/><use xlink:href="#67" y="23.881"/><use xlink:href="#68" y="26.052"/><use xlink:href="#69" y="28.223"/><use xlink:href="#70" y="30.394"/><use xlink:href="#71" y="32.565"/><use xlink:href="#72" y="34.736"/><use xlink:href="#73" y="36.907"/><use xlink:href="#74" y="39.078"/><use xlink:href="#75" y="41.249"/><use xlink:href="#76" y="43.42"/><use xlink:href="#77" y="45.591"/><use xlink:href="#78" y="47.762"/><use xlink:href="#79" y="49.933"/><use xlink:href="#80" y="54.275"/><use xlink:href="#81" y="56.446"/><use xlink:href="#82" y="60.788"/><text y="64.629" class="f">Done!</text></svg></svg></g></g></svg></svg>